<svg width="182" height="24" viewBox="0 0 182 24" fill="none" xmlns="http://www.w3.org/2000/svg">
<path d="M4.59834 17.9264C4.77144 17.7534 5.00622 17.6562 5.25096 17.6562H27.8325C28.2439 17.6562 28.4498 18.1536 28.1588 18.4444L23.6967 22.9029C23.5236 23.0759 23.2888 23.1731 23.0441 23.1731H0.462545C0.0511778 23.1731 -0.154718 22.6757 0.136269 22.3849L4.59834 17.9264Z" fill="url(#paint0_linear_6414_3208)"/>
<path d="M4.59834 1.26821C4.77144 1.09522 5.00622 0.998047 5.25096 0.998047H27.8325C28.2439 0.998047 28.4498 1.49548 28.1588 1.78626L23.6967 6.24477C23.5236 6.41773 23.2888 6.51491 23.0441 6.51491H0.462545C0.0511778 6.51491 -0.154718 6.01753 0.136269 5.72676L4.59834 1.26821Z" fill="url(#paint1_linear_6414_3208)"/>
<path d="M23.6967 9.54553C23.5236 9.37258 23.2888 9.27539 23.0441 9.27539H0.462545C0.0511778 9.27539 -0.154718 9.77284 0.136269 10.0635L4.59834 14.5221C4.77144 14.6951 5.00622 14.7923 5.25096 14.7923H27.8325C28.2439 14.7923 28.4498 14.2948 28.1588 14.004L23.6967 9.54553Z" fill="url(#paint2_linear_6414_3208)"/>
<path d="M42.8848 14.2692H50.7533C51.8588 14.2692 52.7545 15.1776 52.7545 16.2982C52.7545 17.4185 51.8588 18.3269 50.7533 18.3269H41.2625C41.1144 18.3269 40.9713 18.3805 40.8587 18.4783L37.9929 20.9637C37.5543 21.3441 37.8198 22.0724 38.3971 22.0724H50.2781C50.2828 22.0724 50.2868 22.0685 50.2868 22.0638C50.2868 22.0583 50.2911 22.0543 50.2966 22.0547C50.4458 22.0666 50.5972 22.0724 50.7497 22.0724C53.9012 22.0724 56.4562 19.4874 56.4562 16.2982C56.4562 13.2698 54.1522 10.7859 51.2213 10.5432C51.2162 10.5428 51.2122 10.5385 51.2122 10.5334C51.2122 10.528 51.2079 10.5236 51.2028 10.5236H42.7258C41.6207 10.5236 40.7247 9.61559 40.7247 8.49494C40.7247 7.37428 41.6207 6.46624 42.7258 6.46624H52.2036C52.3597 6.46624 52.51 6.40648 52.6244 6.29926L55.2855 3.81383C55.7017 3.42519 55.4304 2.7207 54.8643 2.7207H42.8848C42.8845 2.7207 42.8837 2.72106 42.8837 2.72142C42.8837 2.72215 42.8834 2.72252 42.8827 2.72252C42.8319 2.72107 42.7809 2.7207 42.7294 2.7207C39.5779 2.7207 37.0229 5.30575 37.0229 8.49494C37.0229 11.6841 39.5779 14.2692 42.7294 14.2692C42.7809 14.2692 42.8319 14.2688 42.8827 14.2673C42.8834 14.2673 42.8837 14.2677 42.8837 14.2684C42.8837 14.2688 42.8845 14.2692 42.8848 14.2692Z" fill="black"/>
<path d="M88.7114 2.7207C88.3673 2.7207 88.0884 3.00249 88.0884 3.35057V21.4426C88.0884 21.7906 88.3673 22.0724 88.7114 22.0724H103.119C103.291 22.0724 103.456 22.0004 103.574 21.8736L105.377 19.9275C105.75 19.5251 105.468 18.8666 104.923 18.8666H92.3428C91.9987 18.8666 91.7198 18.5844 91.7198 18.2364V3.35057C91.7198 3.00249 91.4409 2.7207 91.0972 2.7207H88.7114Z" fill="black"/>
<path fill-rule="evenodd" clip-rule="evenodd" d="M65.6345 2.7207C65.6334 2.7207 65.6327 2.72143 65.6327 2.72215C65.6327 2.72324 65.632 2.72396 65.6313 2.72396C63.7895 2.80437 62.311 4.2952 62.2313 6.15221C62.2313 6.15329 62.2306 6.15402 62.2295 6.15402C62.2291 6.15402 62.2288 6.15437 62.2284 6.15437C62.228 6.15474 62.228 6.1551 62.228 6.15582V18.3255C62.228 18.3262 62.2288 18.3269 62.2295 18.3269C62.2306 18.3269 62.2313 18.3276 62.2313 18.3287C62.2291 18.3798 62.228 18.4312 62.228 18.483C62.228 20.4128 63.7377 21.9866 65.6313 22.0692C65.632 22.0692 65.6327 22.0699 65.6327 22.071L65.6331 22.0717L65.6335 22.0721C65.6338 22.0724 65.6342 22.0724 65.6345 22.0724H78.7082C78.7089 22.0724 78.71 22.0717 78.71 22.071V22.0699L78.7108 22.0692H78.7115C80.6047 21.9866 82.1147 20.4128 82.1147 18.483C82.1147 18.4312 82.1136 18.3798 82.1115 18.3287C82.1115 18.3276 82.1122 18.3269 82.1133 18.3269C82.114 18.3269 82.1147 18.3262 82.1147 18.3255V6.15582C82.1147 6.15474 82.114 6.15402 82.1129 6.15402C82.1122 6.15402 82.1115 6.15329 82.1115 6.15221C82.0318 4.2952 80.5529 2.80437 78.7115 2.72396C78.7108 2.72396 78.71 2.72324 78.71 2.72215C78.71 2.72143 78.7089 2.7207 78.7082 2.7207H65.6345ZM68.0714 6.15402L68.0707 6.15437L68.0703 6.1551C68.0703 6.15547 68.07 6.15619 68.0693 6.15619C66.9185 6.20653 65.9942 7.14463 65.9446 8.31273C65.9446 8.31309 65.9439 8.31384 65.9435 8.31384C65.9428 8.31384 65.9424 8.3142 65.9424 8.31492V15.9701C65.9424 15.9704 65.9428 15.9708 65.9435 15.9708C65.9439 15.9708 65.9442 15.9715 65.9442 15.9719C65.9431 16.0041 65.9424 16.0367 65.9424 16.0689C65.9424 17.283 66.8859 18.2729 68.0693 18.3247C68.07 18.3247 68.0703 18.3255 68.0703 18.3258L68.0707 18.3266L68.0711 18.3269H68.0714H76.2713H76.2717L76.272 18.3266L76.2724 18.3258C76.2724 18.3255 76.2728 18.3247 76.2731 18.3247C77.4568 18.2729 78.4003 17.283 78.4003 16.0689C78.4003 16.0367 78.3996 16.0041 78.3982 15.9719L78.3985 15.9715L78.3993 15.9708C78.4 15.9708 78.4003 15.9704 78.4003 15.9701V8.31492C78.4003 8.3142 78.4 8.31384 78.3993 8.31384C78.3989 8.31384 78.3982 8.31309 78.3982 8.31273C78.3485 7.14463 77.4242 6.20653 76.2731 6.15619C76.2728 6.15619 76.2724 6.15547 76.2724 6.1551L76.272 6.15437L76.2717 6.15402H76.2713H68.0714Z" fill="black"/>
<path fill-rule="evenodd" clip-rule="evenodd" d="M126.33 21.4426C126.33 21.7906 126.606 22.0724 126.947 22.0724H129.391C129.732 22.0724 130.009 21.7906 130.009 21.4426V6.46769C130.009 6.46696 130.008 6.46624 130.007 6.46624L130.006 6.46587L130.006 6.46551C130.006 6.46551 130.006 6.46479 130.006 6.46443C130.008 6.41335 130.009 6.36192 130.009 6.31013C130.009 4.38032 128.513 2.80655 126.638 2.72396C126.637 2.72396 126.636 2.72324 126.636 2.72215C126.636 2.72143 126.636 2.7207 126.635 2.7207H114.084C114.082 2.7207 114.082 2.72143 114.082 2.72215C114.082 2.72324 114.081 2.72396 114.08 2.72396C114.03 2.72179 113.979 2.7207 113.929 2.7207C111.981 2.7207 110.403 4.3278 110.403 6.31013C110.403 6.36192 110.404 6.41335 110.406 6.46443C110.406 6.46515 110.405 6.46624 110.404 6.46624C110.404 6.46624 110.403 6.46696 110.403 6.46769V21.4426C110.403 21.7906 110.679 22.0724 111.02 22.0724H113.464C113.805 22.0724 114.082 21.7906 114.082 21.4426V15.2116C114.082 14.8635 114.358 14.5814 114.7 14.5814H125.712C126.053 14.5814 126.33 14.8635 126.33 15.2116V21.4426ZM114.082 11.1423V8.0266C114.082 6.8201 115.043 5.8418 116.228 5.8418H124.184C125.369 5.8418 126.33 6.8201 126.33 8.0266V11.1423C126.33 11.4903 126.053 11.7721 125.712 11.7721H114.7C114.358 11.7721 114.082 11.4903 114.082 11.1423Z" fill="black"/>
<path fill-rule="evenodd" clip-rule="evenodd" d="M177.912 22.0724C177.568 22.0724 177.288 21.7906 177.288 21.4426V15.2116C177.288 14.8635 177.009 14.5814 176.665 14.5814H165.53C165.186 14.5814 164.907 14.8635 164.907 15.2116V21.4426C164.907 21.7906 164.628 22.0724 164.283 22.0724H161.816C161.472 22.0724 161.192 21.7906 161.192 21.4426V6.46769V6.46732L161.193 6.46659C161.193 6.46623 161.193 6.46624 161.194 6.46624C161.195 6.46624 161.196 6.46515 161.196 6.46443C161.193 6.41335 161.192 6.36192 161.192 6.31013C161.192 4.3278 162.786 2.7207 164.752 2.7207C164.804 2.7207 164.855 2.72179 164.905 2.72396C164.906 2.72396 164.907 2.72324 164.907 2.72215C164.907 2.72143 164.907 2.7207 164.909 2.7207H177.596C177.597 2.7207 177.598 2.72143 177.598 2.72215C177.598 2.72324 177.599 2.72396 177.599 2.72396C179.493 2.80655 181.003 4.38032 181.003 6.31013C181.003 6.36192 181.002 6.41335 180.999 6.46443C180.999 6.46515 181 6.46624 181.001 6.46624C181.002 6.46624 181.002 6.46623 181.002 6.46659C181.003 6.46695 181.003 6.46732 181.003 6.46769V21.4426C181.003 21.7906 180.724 22.0724 180.379 22.0724H177.912ZM164.907 8.0266V11.1423C164.907 11.4903 165.186 11.7721 165.53 11.7721H176.665C177.009 11.7721 177.288 11.4903 177.288 11.1423V8.0266C177.288 6.8201 176.318 5.8418 175.122 5.8418H167.074C165.877 5.8418 164.907 6.8201 164.907 8.0266Z" fill="black"/>
<path d="M139.207 2.7207C139.388 2.7207 139.56 2.80147 139.677 2.94164L150.636 16.0874C151.009 16.5329 151.724 16.2642 151.724 15.6785V3.35057C151.724 3.00249 152 2.7207 152.341 2.7207H154.785C155.126 2.7207 155.403 3.00249 155.403 3.35057V21.4426C155.403 21.7906 155.126 22.0724 154.785 22.0724H151.747C151.734 22.0724 151.724 22.0619 151.724 22.0489C151.724 22.0435 151.722 22.0377 151.718 22.0337L140.575 8.97992C140.2 8.5413 139.492 8.81222 139.492 9.39428V21.4426C139.492 21.7906 139.215 22.0724 138.874 22.0724H136.415C136.074 22.0724 135.797 21.7906 135.797 21.4426V3.35057C135.797 3.00249 136.074 2.7207 136.415 2.7207H139.207Z" fill="black"/>
<defs>
<linearGradient id="paint0_linear_6414_3208" x1="19.1291" y1="-5.08288" x2="3.50078" y2="24.8518" gradientUnits="userSpaceOnUse">
<stop stop-color="#00FFA3"/>
<stop offset="1" stop-color="#DC1FFF"/>
</linearGradient>
<linearGradient id="paint1_linear_6414_3208" x1="19.1291" y1="-5.0843" x2="3.50078" y2="24.8503" gradientUnits="userSpaceOnUse">
<stop stop-color="#00FFA3"/>
<stop offset="1" stop-color="#DC1FFF"/>
</linearGradient>
<linearGradient id="paint2_linear_6414_3208" x1="19.1291" y1="-5.08231" x2="3.50076" y2="24.8523" gradientUnits="userSpaceOnUse">
<stop stop-color="#00FFA3"/>
<stop offset="1" stop-color="#DC1FFF"/>
</linearGradient>
</defs>
</svg>
